<?xml version="1.0" standalone="no"?>
<!DOCTYPE svg PUBLIC "-//W3C//DTD SVG 20010904//EN"
 "http://www.w3.org/TR/2001/REC-SVG-20010904/DTD/svg10.dtd">
<svg version="1.0" xmlns="http://www.w3.org/2000/svg"
 width="1650.000000pt" height="1244.000000pt" viewBox="0 0 1650.000000 1244.000000"
 preserveAspectRatio="xMidYMid meet">
<metadata>
Created by potrace 1.16, written by Peter Selinger 2001-2019
</metadata>
<g transform="translate(0.000000,1244.000000) scale(0.100000,-0.100000)"
fill="#000000" stroke="none">
<path d="M8340 11483 c-13 -5 -103 -54 -335 -183 -27 -15 -77 -42 -110 -60
-115 -63 -150 -82 -190 -105 -245 -137 -336 -188 -442 -246 -32 -18 -80 -44
-108 -60 -27 -15 -101 -56 -164 -91 -62 -35 -130 -72 -150 -84 -20 -11 -81
-44 -136 -74 -55 -29 -111 -60 -125 -69 -14 -9 -38 -23 -53 -31 -53 -26 -103
-79 -138 -142 l-34 -63 0 -1065 0 -1065 23 -47 c31 -63 81 -125 123 -150 34
-22 130 -76 414 -234 22 -12 119 -66 215 -119 96 -54 198 -110 225 -125 28
-15 68 -38 90 -50 22 -12 63 -35 90 -50 28 -15 129 -72 225 -125 96 -54 193
-108 215 -120 112 -62 157 -87 234 -130 197 -112 310 -113 505 -3 48 27 114
63 145 80 91 51 127 70 311 173 96 54 198 110 225 125 28 15 68 38 90 50 38
22 445 248 530 295 145 79 385 215 411 231 47 30 99 94 125 154 l24 55 0 1055
0 1055 -28 58 c-30 64 -93 131 -153 163 -21 11 -66 36 -99 54 -71 40 -119 66
-200 110 -33 18 -72 41 -87 51 -14 11 -33 19 -41 19 -9 0 -18 4 -21 9 -4 5
-41 28 -84 51 -74 41 -114 63 -204 114 -50 28 -393 218 -456 252 -23 13 -61
34 -85 47 -23 14 -62 36 -87 49 -25 14 -72 40 -105 58 -33 19 -81 45 -106 59
-26 14 -87 48 -135 76 l-89 50 -120 2 c-66 1 -127 -1 -135 -4z m337 -1028 c24
-55 61 -138 81 -184 20 -46 46 -90 57 -97 26 -17 151 -65 187 -71 23 -4 190
56 354 129 25 10 51 18 58 16 7 -2 59 -45 114 -96 l101 -94 -18 -41 c-10 -23
-33 -76 -51 -117 -18 -41 -45 -103 -61 -138 -16 -34 -29 -73 -29 -86 0 -14 16
-57 35 -97 19 -41 35 -79 35 -86 0 -15 45 -39 130 -68 36 -13 103 -37 150 -55
47 -17 97 -36 113 -42 l27 -10 0 -139 0 -138 -30 -16 c-16 -8 -34 -15 -41 -15
-7 0 -42 -13 -78 -29 -95 -41 -212 -89 -237 -96 -12 -3 -28 -20 -35 -38 -7
-18 -25 -61 -42 -96 -16 -35 -27 -73 -24 -85 2 -12 41 -98 85 -192 l80 -172
-92 -89 c-50 -49 -98 -94 -106 -101 -17 -12 -44 -3 -240 73 -195 75 -172 72
-259 37 -42 -17 -89 -34 -104 -38 -21 -5 -34 -18 -48 -48 -44 -96 -139 -329
-139 -342 0 -12 -25 -14 -151 -12 l-150 3 -19 35 c-10 19 -50 105 -89 190 -38
85 -76 158 -83 162 -47 26 -202 79 -216 75 -9 -3 -66 -26 -127 -52 -60 -25
-137 -56 -170 -69 -33 -13 -67 -26 -76 -30 -11 -5 -45 21 -117 90 -56 53 -102
101 -102 108 0 6 36 94 79 195 l79 183 -25 57 c-65 150 -66 151 -92 157 -24 6
-90 30 -256 94 -38 15 -82 30 -97 34 l-28 6 0 143 0 142 202 80 202 80 43 92
c24 51 43 102 43 113 0 11 -36 98 -80 193 -44 96 -80 177 -80 181 0 14 195
195 210 196 8 0 42 -11 75 -24 33 -13 96 -37 140 -54 44 -16 105 -40 135 -51
55 -21 56 -21 100 -3 25 10 73 29 107 42 52 20 64 30 76 60 8 19 42 102 76
183 33 82 63 153 67 158 3 6 69 8 156 7 l150 -3 45 -100z"/>
<path d="M8344 9845 c-144 -22 -275 -93 -387 -209 -79 -82 -125 -159 -160
-271 -47 -150 -44 -267 8 -417 69 -198 216 -346 425 -428 80 -32 93 -34 235
-38 148 -4 153 -3 245 27 148 50 237 109 335 225 167 196 207 491 97 723 -35
75 -63 114 -132 187 -99 105 -239 178 -389 202 -102 16 -167 16 -277 -1z"/>
<path d="M8599 6780 c-46 -48 -61 -72 -78 -127 -20 -67 -20 -86 -21 -1078 0
-555 3 -1025 6 -1042 4 -18 10 -30 15 -27 5 3 6 -2 3 -10 -16 -41 76 -159 161
-207 182 -103 216 -120 226 -113 8 5 9 3 4 -6 -6 -10 -4 -12 8 -7 9 3 16 2 14
-3 -3 -12 152 -101 180 -103 11 -1 19 -5 17 -9 -7 -10 209 -129 224 -123 7 3
10 1 7 -5 -7 -12 32 -33 47 -24 7 5 8 3 3 -6 -6 -10 -4 -12 9 -7 10 4 15 3 11
-3 -6 -9 8 -14 28 -11 4 0 7 -4 7 -9 0 -10 48 -35 63 -32 4 1 7 -2 7 -8 0 -5
7 -10 15 -10 8 0 15 -4 15 -9 0 -5 23 -23 50 -40 28 -17 50 -35 50 -41 0 -5
13 -10 30 -10 16 0 53 -14 82 -31 58 -34 99 -53 111 -51 4 1 7 -2 7 -8 0 -14
59 -42 72 -34 6 4 8 3 5 -3 -5 -8 297 -183 317 -183 4 0 4 5 0 12 -4 7 -3 8 5
4 6 -4 9 -11 6 -16 -3 -4 11 -17 31 -29 39 -23 59 -27 48 -9 -4 7 -3 8 5 4 6
-4 9 -11 6 -16 -3 -5 18 -22 47 -36 46 -24 67 -28 156 -31 56 -1 100 1 98 6
-3 4 5 6 18 4 30 -6 199 83 190 99 -4 7 -2 8 4 4 14 -9 115 42 107 54 -3 5 0
12 6 16 8 4 9 3 5 -4 -13 -21 7 -13 114 47 58 32 104 64 102 71 -1 6 2 9 8 5
6 -4 126 57 268 136 141 78 278 153 304 167 26 13 53 31 59 39 7 7 -44 -18
-112 -55 -156 -86 -176 -97 -166 -86 4 4 135 79 290 165 155 86 282 161 282
165 0 5 4 16 9 24 5 8 6 12 1 8 -4 -4 -14 0 -22 8 -8 8 -19 12 -24 9 -13 -9
-11 9 3 23 9 9 9 12 0 12 -6 0 -15 -8 -21 -17 -8 -15 -12 -16 -23 -4 -9 10
-10 12 0 7 17 -10 15 16 -4 40 -8 10 -12 12 -8 4 5 -10 0 -9 -14 4 -12 11 -36
19 -52 19 -16 0 -32 7 -35 15 -4 11 -2 12 8 4 11 -9 13 -6 9 19 -4 27 -5 28
-19 12 -10 -13 -16 -15 -19 -5 -3 6 -10 10 -14 7 -5 -3 -7 4 -5 16 4 17 2 19
-11 8 -8 -6 -17 -9 -21 -5 -3 3 0 6 7 6 8 0 3 8 -10 20 -22 19 -35 24 -53 21
-5 -1 -6 3 -2 9 3 5 0 10 -7 10 -7 0 -21 17 -30 38 -10 20 -16 30 -14 21 3
-12 -3 -16 -24 -15 -17 1 -25 5 -21 11 10 14 8 35 -4 33 -5 -2 -9 -9 -9 -15 1
-7 -2 -13 -7 -13 -5 0 -9 10 -9 21 0 19 -2 20 -17 8 -15 -12 -16 -12 -10 3 8
22 -12 35 -25 17 -7 -10 -8 -6 -5 14 4 26 -7 39 -15 15 -4 -10 -25 -11 -86 -6
-8 1 -11 9 -8 22 3 12 0 28 -5 36 -9 13 -10 12 -5 -2 9 -30 -1 -20 -22 21 -14
26 -17 42 -10 49 6 6 6 12 -3 17 -8 5 -10 4 -5 -3 4 -7 3 -12 -2 -12 -6 0 -13
7 -16 16 -5 14 -9 14 -23 3 -14 -12 -16 -12 -8 0 6 11 4 13 -8 8 -10 -4 -16
-2 -14 6 1 7 -10 13 -25 15 -22 3 -29 -2 -34 -22 -3 -14 -11 -24 -16 -23 -6 1
-13 -4 -16 -12 -3 -8 0 -11 7 -7 14 9 14 -14 0 -34 -9 -13 -10 -12 -5 3 3 11
2 16 -4 12 -6 -3 -10 -13 -10 -21 0 -12 -10 -14 -47 -9 -26 3 -51 11 -55 18
-7 12 -12 73 -9 110 1 9 -3 17 -9 17 -14 0 -10 49 5 69 7 11 7 13 -3 7 -10 -6
-11 -1 -6 20 5 20 4 25 -5 19 -8 -4 -12 -2 -10 6 3 29 -1 50 -11 44 -5 -3 -10
-2 -10 3 0 5 -7 9 -15 9 -10 0 -15 -10 -14 -31 0 -19 3 -25 7 -16 4 8 13 16
20 18 9 1 10 -3 3 -15 -9 -17 -23 -52 -25 -63 -1 -3 -5 -11 -10 -19 -6 -10 -5
-12 2 -7 7 4 12 3 12 -3 0 -5 -6 -12 -12 -14 -10 -4 -10 -6 -1 -6 9 -1 9 -10
-1 -38 -8 -21 -19 -37 -25 -36 -26 6 -287 158 -305 179 -43 46 -51 60 -53 84
-3 61 -8 86 -16 98 -6 8 -5 12 2 12 7 0 10 4 7 8 -3 5 4 19 15 31 12 12 18 25
15 28 -7 7 13 33 26 33 5 0 6 -5 2 -12 -4 -6 -3 -8 4 -5 5 4 8 17 5 30 -4 18
-3 19 7 7 9 -12 11 -12 8 -1 -5 17 -48 26 -48 10 0 -5 -4 -8 -9 -4 -6 3 -15
-3 -21 -12 -9 -15 -10 -14 -5 7 l6 25 -14 -23 c-7 -12 -16 -19 -20 -16 -4 4
-7 1 -7 -6 0 -7 -3 -10 -7 -7 -3 4 -13 -3 -21 -14 -8 -12 -11 -24 -6 -28 13
-9 17 -34 4 -26 -5 3 -10 2 -10 -4 0 -5 5 -13 10 -16 6 -3 10 -11 10 -16 0 -6
-4 -7 -10 -4 -6 4 -10 -17 -10 -57 0 -70 8 -110 20 -103 5 3 6 -4 3 -14 -10
-41 33 -75 226 -181 104 -58 193 -111 196 -119 3 -7 -13 -47 -36 -88 -32 -57
-45 -73 -58 -68 -9 3 -80 42 -159 86 -78 43 -147 79 -152 79 -6 0 -10 -10 -11
-22 0 -13 -2 -31 -4 -40 -4 -23 14 -35 212 -144 89 -49 165 -95 168 -102 5
-14 -72 -162 -84 -162 -5 0 -70 34 -146 76 -96 54 -139 73 -144 65 -10 -16 -4
-96 8 -118 11 -21 58 -46 121 -63 25 -7 64 -24 88 -37 23 -13 46 -21 51 -18 5
3 12 -4 16 -15 8 -25 -64 -160 -85 -160 -9 0 -24 6 -35 13 -11 8 -49 30 -85
49 l-65 36 -2 -89 c-2 -80 -21 -177 -41 -205 -17 -25 -59 -44 -97 -44 -54 0
-70 11 -56 37 5 11 8 23 5 26 -3 3 -1 13 4 24 6 10 16 38 23 63 7 25 16 50 19
55 8 11 22 63 18 67 -1 2 4 14 11 27 l13 23 -64 -5 c-34 -4 -74 -9 -88 -12
-14 -2 -49 -7 -79 -10 -29 -3 -58 -8 -62 -11 -5 -3 -12 2 -15 10 -3 9 -10 16
-15 16 -12 0 -54 41 -67 66 -9 17 -7 25 9 43 11 11 26 21 34 21 8 0 15 5 15
10 0 6 9 10 19 10 11 0 23 5 26 10 3 6 15 10 26 10 10 0 19 5 19 10 0 6 6 10
14 10 7 0 27 13 44 29 16 16 33 27 36 24 3 -4 6 -1 6 5 0 6 10 20 22 32 12 11
19 23 15 27 -4 3 -37 1 -74 -5 -38 -7 -86 -14 -108 -17 -22 -3 -51 -8 -65 -11
-14 -3 -34 -8 -45 -10 -11 -2 -31 -6 -45 -9 -21 -4 -28 1 -43 32 -13 26 -15
39 -7 41 6 2 22 14 35 26 13 11 36 30 51 41 15 11 43 35 62 52 20 18 37 31 39
29 3 -2 15 6 27 18 51 47 86 75 86 70 0 -3 11 6 23 20 13 14 26 23 29 20 3 -2
8 2 12 11 5 14 -1 15 -37 11 -59 -8 -97 -14 -133 -20 -17 -3 -48 -8 -70 -11
-21 -2 -56 -7 -76 -11 -21 -3 -38 -3 -38 1 0 9 50 96 66 115 21 25 70 74 92
92 31 25 111 68 127 68 8 0 15 4 15 9 0 5 9 13 21 16 11 4 18 9 15 12 -3 3 0
15 6 26 6 11 12 43 15 71 2 28 6 65 9 81 2 17 7 55 10 85 3 30 7 59 8 63 2 12
-216 134 -253 142 -17 3 -51 0 -79 -9 -28 -8 -53 -12 -56 -9 -3 4 -6 1 -6 -5
0 -7 -5 -12 -10 -12 -6 0 -16 -5 -23 -10 -34 -30 -120 -90 -129 -90 -5 0 -6
-5 -2 -11 4 -6 7 -110 8 -231 l1 -220 -45 6 c-25 3 -54 8 -65 10 -11 3 -23 5
-26 5 -4 1 -18 18 -32 39 -20 29 -24 46 -21 82 5 67 11 111 19 153 9 46 -1 47
-72 12 -35 -18 -55 -35 -63 -56 -18 -42 -19 -140 -3 -229 8 -41 16 -99 19
-128 l5 -53 -67 3 -67 3 -18 70 c-16 67 -31 133 -45 204 -4 24 -9 30 -15 20
-5 -8 -9 -10 -9 -6 0 4 -17 -9 -38 -30 l-39 -38 20 -27 c15 -21 18 -35 13 -65
-14 -73 -104 -213 -138 -213 -22 0 -32 118 -14 165 2 6 -29 28 -69 50 -57 30
-75 36 -86 27 -48 -41 -235 -172 -245 -172 -10 0 -54 50 -54 60 0 13 64 85
169 191 l92 92 -73 39 c-40 22 -83 46 -96 54 l-22 15 42 79 c24 44 47 80 53
80 5 0 82 -40 172 -90 89 -49 164 -90 167 -90 6 0 49 70 45 74 -2 1 -68 38
-147 81 -78 44 -141 84 -140 90 6 20 82 155 88 155 4 0 105 -54 225 -120 119
-67 219 -120 220 -118 15 18 35 72 28 78 -4 5 -62 39 -128 75 -66 37 -139 78
-163 91 l-42 25 42 79 c24 44 48 80 53 80 6 0 118 -60 250 -133 l240 -134 26
26 c65 65 107 99 113 94 3 -4 6 -1 6 6 0 7 5 9 10 6 6 -3 10 1 10 9 0 9 7 16
15 16 8 0 15 5 15 11 0 5 5 7 10 4 6 -3 10 -2 10 4 0 5 8 17 18 27 18 19 27
64 11 64 -5 0 -9 21 -9 46 0 25 4 43 9 39 6 -3 10 12 9 34 0 38 -12 52 -43 55
-5 1 -19 18 -31 40 -13 23 -24 34 -29 27 -5 -8 -13 -5 -26 10 -10 12 -17 25
-14 28 2 4 -6 8 -18 8 -17 2 -19 0 -7 -7 8 -5 11 -10 5 -10 -18 0 -33 14 -37
35 -2 11 -11 19 -21 19 -9 -1 -17 2 -17 7 0 5 -9 9 -21 9 -16 0 -19 4 -15 17
4 10 4 14 0 10 -4 -4 -14 2 -21 13 -8 11 -18 18 -23 15 -5 -3 -13 3 -19 12
-13 23 -20 14 -28 -32 -4 -28 -3 -36 5 -31 8 5 12 0 12 -13 0 -27 -62 -58 -82
-41 -4 3 -29 9 -67 15 -32 6 -33 6 -27 -19 4 -18 2 -26 -6 -26 -7 0 -40 -13
-72 -30 -33 -16 -63 -27 -68 -24 -4 3 -8 1 -8 -3 0 -9 -61 -35 -95 -40 -14 -2
-26 8 -42 36 -26 45 -23 51 44 92 21 13 41 28 45 33 5 7 8 7 8 1 0 -6 3 -6 8
1 4 5 24 23 44 38 21 16 35 33 31 39 -3 6 -1 7 5 3 7 -4 12 -2 12 4 0 6 5 8
10 5 6 -3 10 -1 10 5 0 6 5 8 10 5 6 -3 10 -1 10 6 0 7 3 10 6 6 3 -3 13 1 22
8 46 38 66 56 55 50 -8 -3 -13 0 -13 9 0 15 -9 15 -48 2 -12 -4 -20 -10 -18
-14 2 -4 -11 -8 -29 -9 -19 -1 -44 -7 -57 -14 -25 -14 -27 -15 -73 -24 -16 -3
-31 -10 -33 -16 -2 -5 -13 -9 -23 -9 -11 0 -18 -4 -15 -9 4 -5 -3 -7 -13 -4
-10 3 -30 -1 -42 -8 -13 -7 -52 -23 -86 -35 -59 -21 -63 -21 -78 -4 -19 21
-32 90 -18 90 6 0 21 10 35 23 14 12 35 29 48 37 34 22 85 64 88 73 2 4 7 5
10 3 4 -2 13 2 20 10 10 11 4 13 -40 10 -29 -2 -66 -8 -81 -15 -16 -6 -26 -7
-23 -2 3 4 -22 2 -56 -6 -33 -8 -75 -16 -92 -17 -17 -2 -50 -7 -73 -11 -35 -6
-43 -4 -43 9 0 8 8 23 18 33 10 10 29 36 42 58 14 22 30 46 37 53 21 22 34 52
28 62 -4 6 -3 10 2 9 19 -3 31 2 36 15 4 11 -33 36 -130 90 -75 42 -140 76
-144 76 -16 0 -10 17 30 87 36 62 38 69 23 82 -16 13 -16 13 1 8 9 -4 17 -2
17 3 0 6 -5 10 -11 10 -5 0 -7 6 -3 13 5 8 2 8 -9 -2 -15 -12 -17 -11 -17 3 0
10 -4 15 -9 11 -5 -3 -12 -1 -16 5 -4 6 -12 7 -18 3 -7 -4 -5 2 3 12 12 15 12
17 1 10 -11 -6 -13 -4 -8 8 7 19 -8 23 -19 6 -4 -7 -15 -2 -31 15 -13 15 -29
23 -35 20 -7 -5 -8 -2 -3 6 6 10 4 12 -8 7 -12 -4 -14 -2 -9 11 5 15 3 15 -23
-2 -38 -25 -62 -53 -80 -95 -9 -19 -17 -32 -20 -29 -10 10 29 71 76 119 28 27
46 49 42 49 -4 0 -33 -27 -64 -60z m1236 -980 c-7 -12 52 -43 67 -34 7 5 8 3
3 -6 -6 -10 -4 -12 9 -7 10 4 15 3 11 -3 -3 -5 17 -21 45 -35 27 -14 50 -23
50 -20 0 2 -18 14 -40 25 -22 11 -40 23 -40 25 0 8 61 -24 95 -50 25 -18 31
-31 32 -61 1 -21 6 -40 12 -42 6 -2 4 -13 -7 -30 -10 -15 -12 -23 -4 -18 7 4
-1 -15 -19 -43 -43 -71 -62 -80 -184 -86 -70 -4 -71 -3 -181 58 -61 34 -118
72 -128 84 -16 22 -15 23 41 65 32 23 72 55 88 70 17 15 33 28 38 28 4 0 7 7
7 16 0 8 3 13 8 10 4 -2 28 11 52 30 48 36 55 39 45 24z m405 -647 c8 -3 20
-7 25 -8 39 -6 173 -75 180 -93 3 -8 2 -20 -3 -26 -5 -6 -9 -22 -10 -36 0 -14
-6 -44 -13 -68 -10 -35 -20 -47 -58 -69 -25 -15 -67 -41 -92 -60 -26 -18 -50
-33 -53 -33 -4 0 -39 -21 -78 -46 -38 -25 -74 -42 -78 -38 -5 5 -6 34 -2 64 8
61 6 221 -3 287 -3 25 -1 52 6 65 12 23 49 63 49 53 0 -3 15 1 33 9 31 13 65
12 97 -1z"/>
<path d="M6482 3303 l-113 -4 3 -52 c3 -50 4 -52 40 -60 20 -5 40 -16 45 -25
4 -9 9 -231 11 -493 l3 -477 70 -6 c61 -6 73 -5 98 13 28 21 31 21 93 4 40
-11 102 -17 173 -17 226 0 355 84 401 264 23 91 15 273 -15 352 -45 116 -144
181 -281 182 -88 1 -127 -8 -193 -48 l-57 -35 0 193 c0 136 -3 195 -12 204 -8
8 -38 11 -82 10 -39 -1 -122 -4 -184 -5z m478 -523 c36 -39 50 -98 50 -213 0
-169 -43 -247 -135 -247 -56 0 -93 30 -105 85 -14 61 -12 305 3 335 19 38 74
70 119 70 31 0 46 -6 68 -30z"/>
<path d="M12962 3268 c-16 -16 -16 -200 0 -216 17 -17 249 -17 266 0 8 8 12
47 12 108 0 61 -4 100 -12 108 -8 8 -52 12 -133 12 -81 0 -125 -4 -133 -12z"/>
<path d="M9350 3260 c-258 -33 -385 -186 -324 -390 26 -86 109 -162 259 -234
171 -83 215 -121 215 -191 0 -71 -59 -115 -155 -115 -97 0 -148 38 -177 133
l-11 37 -72 0 c-42 0 -76 -5 -83 -12 -8 -8 -12 -54 -12 -139 0 -146 -15 -129
130 -150 47 -6 148 -12 225 -13 159 -1 242 18 327 74 116 77 159 239 100 374
-33 73 -98 126 -263 211 -82 43 -159 89 -169 103 -44 56 -37 111 20 150 30 20
44 23 102 20 58 -3 71 -8 98 -33 17 -16 38 -51 48 -77 l17 -48 70 0 c42 0 76
5 83 12 8 8 12 52 12 134 l0 122 -52 11 c-124 27 -280 35 -388 21z"/>
<path d="M2672 3248 c-18 -18 -17 -282 2 -297 9 -7 40 -11 81 -9 l67 3 19 55
c26 77 65 110 129 110 l50 0 0 -389 c0 -428 3 -407 -63 -420 -30 -6 -32 -9
-32 -51 l0 -45 255 0 255 0 0 45 c0 42 -2 45 -32 51 -66 13 -63 -8 -63 420 l0
389 50 0 c64 0 103 -33 128 -110 l19 -55 67 -3 c41 -2 73 2 82 9 19 15 20 279
2 297 -17 17 -999 17 -1016 0z"/>
<path d="M4060 2979 c-100 -14 -170 -47 -231 -108 -82 -83 -103 -142 -103
-296 -1 -110 2 -125 27 -180 55 -119 149 -182 301 -205 96 -14 208 -6 289 21
159 53 240 162 254 340 19 245 -98 395 -335 429 -77 11 -124 11 -202 -1z m154
-144 c13 -9 34 -39 47 -68 21 -46 23 -68 24 -187 0 -87 -5 -148 -13 -172 -31
-86 -127 -117 -182 -58 -41 44 -55 107 -55 255 0 115 3 135 23 176 12 25 32
51 45 57 33 16 84 14 111 -3z"/>
<path d="M4877 2983 l-108 -4 3 -51 c3 -50 4 -53 36 -59 19 -4 39 -12 45 -18
16 -16 23 -452 8 -503 -8 -27 -19 -39 -42 -47 -28 -10 -30 -13 -27 -53 l3 -43
220 0 220 0 3 42 c3 40 1 43 -31 56 -30 13 -35 20 -40 62 -12 86 -8 348 6 375
17 34 74 70 112 70 52 0 66 -26 77 -137 9 -93 4 -316 -8 -347 -3 -8 -19 -19
-35 -25 -28 -10 -30 -14 -27 -53 l3 -43 220 0 220 0 3 42 c3 40 1 43 -31 57
-26 10 -36 22 -41 46 -10 52 -7 354 4 386 23 64 126 97 166 53 17 -19 19 -41
22 -227 2 -113 1 -216 -2 -228 -4 -13 -19 -26 -37 -33 -28 -10 -30 -13 -27
-53 l3 -43 220 0 220 0 3 42 c3 40 1 43 -32 57 -20 8 -37 16 -38 18 0 2 -4
113 -7 248 -6 203 -10 252 -24 285 -41 92 -113 130 -242 129 -88 -1 -138 -17
-220 -74 l-45 -31 -34 35 c-40 43 -82 62 -157 71 -70 9 -165 -14 -231 -55
l-48 -29 0 32 c0 49 -14 57 -99 55 -42 -1 -125 -4 -184 -5z"/>
<path d="M7856 2979 c-38 -5 -125 -28 -193 -50 l-123 -41 0 -83 c0 -59 4 -86
14 -94 9 -8 47 -11 107 -9 l93 3 6 30 c9 43 37 93 59 105 11 5 36 10 56 10 72
0 105 -42 105 -133 l0 -54 -72 -6 c-226 -19 -380 -101 -408 -215 -24 -102 19
-190 115 -232 97 -44 223 -34 334 26 60 33 63 34 58 13 -3 -12 -2 -31 4 -41 9
-16 25 -18 173 -18 183 0 189 2 184 66 -3 33 -7 39 -35 46 -18 5 -36 14 -40
21 -4 6 -10 120 -13 252 -5 227 -6 243 -29 288 -25 51 -73 90 -132 107 -52 15
-186 20 -263 9z m124 -499 c0 -51 -4 -64 -27 -90 -47 -52 -144 -54 -164 -3
-13 35 5 89 37 110 34 22 94 42 127 43 26 0 27 -1 27 -60z"/>
<path d="M10316 2979 c-65 -9 -152 -46 -204 -85 -49 -38 -99 -120 -118 -194
-22 -86 -15 -223 16 -303 59 -155 243 -237 468 -208 133 17 302 109 302 165 0
21 -66 96 -84 96 -5 0 -24 -11 -42 -25 -59 -45 -114 -65 -184 -65 -107 0 -167
49 -185 153 l-7 37 255 0 c216 0 256 2 267 15 18 21 6 139 -22 212 -60 161
-230 236 -462 202z m129 -135 c21 -8 44 -54 54 -109 l8 -45 -108 0 c-106 0
-109 1 -109 23 1 34 35 102 61 121 24 16 65 21 94 10z"/>
<path d="M11067 2983 l-108 -4 3 -51 c3 -50 4 -53 36 -59 19 -4 39 -12 45 -18
16 -16 23 -452 8 -503 -8 -27 -19 -39 -42 -47 -28 -10 -30 -13 -27 -53 l3 -43
225 0 225 0 0 44 c0 42 -2 45 -31 53 -18 4 -35 16 -39 26 -11 25 -19 301 -10
368 15 124 124 158 164 51 10 -27 12 -27 100 -27 63 0 92 4 100 14 8 9 11 52
9 127 l-3 114 -69 8 c-88 11 -174 -4 -248 -42 l-58 -30 0 28 c0 43 -16 51 -99
49 -42 -1 -125 -4 -184 -5z"/>
<path d="M12962 2983 l-113 -4 3 -51 c3 -50 4 -53 36 -59 19 -4 39 -12 45 -18
16 -16 22 -452 7 -503 -8 -29 -18 -39 -46 -48 -33 -11 -35 -14 -32 -53 l3 -42
230 0 230 0 0 44 c0 42 -2 45 -31 53 -18 4 -36 16 -40 26 -5 9 -10 156 -12
327 -2 195 -7 314 -14 322 -7 9 -34 12 -82 11 -39 -1 -122 -4 -184 -5z"/>
<path d="M13784 2980 c-175 -26 -274 -110 -274 -234 0 -104 67 -172 238 -243
124 -52 162 -79 162 -116 0 -45 -22 -61 -91 -64 -81 -5 -121 17 -150 82 l-20
45 -67 0 c-40 0 -73 -5 -80 -12 -8 -8 -12 -48 -12 -114 l0 -101 56 -12 c194
-38 401 -34 506 11 135 58 189 225 108 336 -40 55 -75 78 -207 133 -127 53
-153 71 -153 105 0 32 36 54 88 54 60 0 94 -21 123 -74 l24 -46 65 0 c38 0 71
5 78 12 8 8 12 48 12 114 l0 102 -32 6 c-123 23 -282 29 -374 16z"/>
<path d="M11822 2968 c-7 -7 -12 -29 -12 -49 0 -33 4 -39 38 -56 37 -18 39
-22 169 -348 l131 -330 99 -3 98 -2 153 299 c166 324 198 377 237 387 22 5 25
12 25 48 0 23 -5 47 -12 54 -8 8 -62 12 -179 12 -187 0 -193 -2 -187 -66 3
-33 7 -39 36 -46 18 -5 36 -16 39 -25 10 -26 -11 -89 -74 -221 l-59 -124 -57
154 c-68 182 -70 204 -24 216 28 7 32 13 35 46 6 66 4 66 -232 66 -152 0 -215
-3 -224 -12z"/>
</g>
</svg>
